# Blender v3.1.2 OBJ File: ''
# www.blender.org
mtllib broom.mtl
o Nimbus_Cylinder
v 1.814473 0.178101 -0.030182
v 1.814473 0.143460 0.000058
v 1.814473 0.178101 0.030292
v 1.814473 0.212742 0.000053
v 0.317330 0.100370 -0.050096
v 0.328803 0.057550 -0.000096
v 0.317330 0.100370 0.049904
v 0.305574 0.144242 -0.000096
v -0.481251 -0.101237 -0.000096
v -0.481251 -0.062190 0.046399
v -0.481251 -0.022888 0.022969
v -0.481251 -0.022888 -0.023162
v -0.481251 -0.062190 -0.046591
v 1.914473 0.177447 -0.029703
v 1.914473 0.120803 0.000178
v 1.914473 0.177447 0.029982
v 1.914473 0.216418 0.000103
v 2.001132 0.162489 -0.026457
v 1.978929 0.085378 0.000328
v 2.001132 0.162489 0.027114
v 2.050147 0.210691 0.000328
v 2.022536 0.134917 0.003759
v 0.043696 -0.054444 -0.000096
v -0.228769 -0.092544 -0.000096
v 0.036794 -0.011364 0.049904
v -0.228769 -0.050222 0.049904
v 0.028235 0.031173 0.024904
v -0.228769 -0.006934 0.024904
v 0.028235 0.031173 -0.025096
v -0.228769 -0.006934 -0.025096
v -0.228769 -0.050222 -0.050096
v 0.036794 -0.011364 -0.050096
v 1.664752 0.173649 -0.029922
v 1.664752 0.143266 0.000039
v 1.664752 0.173649 0.029993
v 1.664752 0.204108 0.000034
v 0.721507 0.110333 -0.000056
v 0.721507 0.145575 0.038214
v 0.721507 0.181453 -0.000057
v 0.721507 0.145575 -0.038328
v -0.481251 -0.141189 -0.000096
v -0.481251 -0.060996 -0.094623
v -0.481251 0.019648 -0.000096
v -0.481251 -0.060996 0.094430
v -1.781251 -0.164317 -0.000096
v -0.781251 0.010817 -0.000096
v -1.407251 -0.026330 -0.000096
v -1.407251 -0.121764 0.111716
v -0.781251 -0.079683 0.105964
v -1.407251 -0.216596 -0.000096
v -0.781251 -0.169660 -0.000096
v -1.407251 -0.121764 -0.111908
v -0.781251 -0.079683 -0.106157
v -1.108330 0.049463 -0.000096
v -1.108330 -0.106609 0.182760
v -1.108330 -0.261697 -0.000096
v -1.108330 -0.106609 -0.182953
v -0.531251 -0.064611 -0.090402
v -0.531251 0.012467 -0.000096
v -0.591251 0.011101 -0.000096
v -0.629251 0.010236 -0.000096
v -0.629251 -0.070355 -0.094519
v -0.674851 -0.073028 -0.096434
v -0.712091 -0.075210 0.097806
v -0.712091 -0.075210 -0.097998
v -0.739755 0.007721 -0.000096
v -0.591251 -0.068128 0.092730
v -0.531251 -0.064611 0.090210
v -0.591251 -0.146858 -0.000096
v -0.531251 -0.141203 -0.000096
v -0.591251 -0.068128 -0.092922
v -0.629251 -0.070355 0.094326
v -0.629251 -0.150439 -0.000096
v -0.674851 0.009198 -0.000096
v -0.674851 -0.073028 0.096242
v -0.674851 -0.154736 -0.000096
v -0.712091 0.008350 -0.000096
v -0.712091 -0.158245 -0.000096
v -0.739755 -0.076832 0.098968
v -0.739755 -0.160852 -0.000096
v -0.739755 -0.076832 -0.099160
vt 0.888462 0.905027
vt 0.922322 0.938635
vt 0.912332 0.949607
vt 0.878554 0.914725
vt 0.917883 0.875224
vt 0.952923 0.908851
vt 0.941993 0.918913
vt 0.908230 0.885176
vt 0.932088 0.928703
vt 0.898560 0.895314
vt 0.484782 0.414504
vt 0.469339 0.430497
vt 0.395344 0.347899
vt 0.424116 0.339620
vt 0.498158 0.533582
vt 0.572548 0.600605
vt 0.558111 0.617020
vt 0.481661 0.548895
vt 0.457706 0.443797
vt 0.378605 0.360699
vt 0.445297 0.456314
vt 0.362114 0.377578
vt 0.432065 0.467972
vt 0.349397 0.394531
vt 0.550338 0.479926
vt 0.618782 0.556084
vt 0.602431 0.570593
vt 0.535066 0.496471
vt 0.587025 0.585136
vt 0.523279 0.509051
vt 0.510696 0.521769
vt 0.935763 0.975303
vt 0.944239 0.956919
vt 0.960273 0.965458
vt 0.959582 0.989597
vt 0.960387 0.940914
vt 0.950933 0.947516
vt 0.978843 0.932129
vt 0.963048 0.960016
vt 0.968855 0.957211
vt 0.994031 0.955982
vt 0.973650 0.969583
vt 0.416146 0.483450
vt 0.341364 0.423445
vt 0.680853 0.678557
vt 0.668360 0.690134
vt 0.692377 0.666015
vt 0.704198 0.653826
vt 0.656224 0.702011
vt 0.337935 0.388421
vt 0.364475 0.363264
vt 0.153883 0.077692
vt 0.120811 0.122467
vt 0.007453 0.010393
vt 0.389119 0.336503
vt 0.431024 0.327108
vt 0.328900 0.430434
vt 0.171103 0.020391
vt 0.076417 0.156046
vt 0.019316 0.173917
vt 0.291545 0.291271
vt 0.252425 0.334893
vt 0.237145 0.323833
vt 0.278768 0.278641
vt 0.194043 0.194869
vt 0.137191 0.242056
vt 0.221098 0.385550
vt 0.203185 0.377746
vt 0.061936 0.300287
vt 0.385030 0.219777
vt 0.334716 0.251664
vt 0.323486 0.236510
vt 0.377031 0.201942
vt 0.297955 0.061566
vt 0.240579 0.137484
vt 0.350163 0.349157
vt 0.382848 0.322229
vt 0.425161 0.306517
vt 0.308264 0.424770
vt 0.323565 0.382296
vt 0.370996 0.303558
vt 0.335301 0.334498
vt 0.324818 0.324148
vt 0.362499 0.290796
vt 0.415604 0.280440
vt 0.408468 0.264752
vt 0.304747 0.370617
vt 0.282082 0.415492
vt 0.266317 0.408515
vt 0.291880 0.362252
vt 0.351534 0.275009
vt 0.311615 0.311105
vt 0.300277 0.299900
vt 0.342025 0.261692
vt 0.398999 0.245934
vt 0.390925 0.230757
vt 0.275964 0.351455
vt 0.247396 0.399244
vt 0.232135 0.391329
vt 0.262537 0.342092
vn -0.0035 -0.0012 -1.0000
vn -0.0291 0.0342 -0.9990
vn -0.0459 -0.9989 -0.0001
vn 0.0259 -0.9997 0.0000
vn -0.0301 0.0346 0.9989
vn -0.0037 -0.0011 1.0000
vn -0.0289 0.9996 -0.0003
vn -0.0335 0.9994 -0.0000
vn 0.0863 -0.9963 0.0000
vn 0.0114 -0.1865 0.9824
vn 0.8834 -0.0885 0.4602
vn 0.8901 -0.4558 0.0000
vn 0.0509 -0.1671 -0.9846
vn 0.0243 0.0240 -0.9994
vn 0.2537 -0.9673 -0.0000
vn 0.2513 -0.9679 0.0000
vn -0.0926 0.8583 0.5048
vn 0.8229 0.4908 0.2864
vn -0.0926 0.8583 -0.5048
vn 0.8229 0.4908 -0.2864
vn 0.0114 -0.1865 -0.9824
vn 0.8834 -0.0885 -0.4602
vn 0.0242 0.0240 0.9994
vn 0.0509 -0.1671 0.9846
vn -0.2071 0.9783 -0.0000
vn -0.2260 0.8461 0.4828
vn -0.2260 0.8461 -0.4828
vn -0.1944 -0.9809 -0.0001
vn -0.0285 0.0898 -0.9955
vn 0.2704 -0.0350 -0.9621
vn 0.1444 -0.9895 -0.0025
vn -0.0313 0.0911 0.9954
vn 0.0450 0.9990 -0.0009
vn 0.7845 0.6201 -0.0040
vn 0.2294 -0.0090 0.9733
vn 0.8403 -0.5360 0.0811
vn -0.0545 0.9985 -0.0000
vn 0.0145 0.0169 -0.9998
vn 0.0143 0.0169 0.9998
vn 0.0885 -0.9961 0.0000
vn 0.5374 0.0265 -0.8429
vn 0.5326 0.8463 0.0000
vn -0.2566 0.0011 0.9665
vn -0.2904 0.9569 -0.0000
vn -0.9940 -0.1090 0.0000
vn 0.5374 0.0265 0.8429
vn 0.5866 -0.8098 0.0000
vn -0.1441 -0.9896 0.0000
vn -0.2566 0.0011 -0.9665
vn 0.0265 0.9996 -0.0000
vn 0.1071 0.0047 -0.9942
vn 0.1996 0.0102 -0.9798
vn 0.0969 0.9953 -0.0000
vn -0.0609 0.9981 -0.0000
vn -0.0004 -0.0078 -1.0000
vn 0.1545 -0.9880 0.0000
vn 0.2425 -0.9702 0.0000
vn 0.0575 -0.9983 0.0000
vn 0.1071 0.0047 0.9942
vn 0.1996 0.0102 0.9798
vn -0.0004 -0.0078 1.0000
vn -0.0849 0.9964 0.0000
vn -0.0211 -0.0058 0.9998
vn 0.0481 -0.9988 0.0000
vn -0.0211 -0.0058 -0.9998
vn 0.0420 -0.0001 0.9991
vn -0.0228 0.9997 -0.0000
vn 0.0938 -0.9956 0.0000
vn 0.0420 -0.0001 -0.9991
usemtl broom
s 1
f 33/1/1 1/2/2 2/3/3 34/4/4
f 34/5/4 2/6/3 3/7/5 35/8/6
f 35/8/6 3/7/5 4/9/7 36/10/8
f 36/10/8 4/9/7 1/2/2 33/1/1
f 24/11/9 26/12/10 10/13/11 9/14/12
f 32/15/13 5/16/14 6/17/15 23/18/16
f 26/12/10 28/19/17 11/20/18 10/13/11
f 28/19/17 30/21/19 12/22/20 11/20/18
f 30/21/19 31/23/21 13/24/22 12/22/20
f 23/25/16 6/26/15 7/27/23 25/28/24
f 25/28/24 7/27/23 8/29/25 27/30/26
f 27/30/26 8/29/25 29/31/27
f 29/31/27 8/29/25 5/16/14 32/15/13
f 15/32/28 14/33/29 18/34/30 19/35/31
f 4/9/7 3/7/5 16/36/32 17/37/33
f 3/7/5 2/6/3 15/38/28 16/36/32
f 1/2/2 4/9/7 17/37/33 14/33/29
f 2/3/3 1/2/2 14/33/29 15/32/28
f 14/33/29 17/37/33 21/39/34 18/34/30
f 17/37/33 16/36/32 20/40/35 21/39/34
f 16/36/32 15/38/28 19/41/31 20/40/35
f 20/40/35 19/41/31 22/42/36
f 19/35/31 18/34/30 22/42/36
f 18/34/30 21/39/34 22/42/36
f 21/39/34 20/40/35 22/42/36
f 32/15/13 23/18/16 24/43/9 31/23/21
f 23/25/16 25/28/24 26/12/10 24/11/9
f 25/28/24 27/30/26 28/19/17 26/12/10
f 27/30/26 29/31/27 30/21/19 28/19/17
f 29/31/27 32/15/13 31/23/21 30/21/19
f 31/23/21 24/43/9 9/44/12 13/24/22
f 39/45/37 36/10/8 33/1/1 40/46/38
f 38/47/39 35/8/6 36/10/8 39/45/37
f 37/48/40 34/5/4 35/8/6 38/47/39
f 40/46/38 33/1/1 34/4/4 37/49/40
f 5/16/14 40/46/38 37/49/40 6/17/15
f 6/26/15 37/48/40 38/47/39 7/27/23
f 7/27/23 38/47/39 39/45/37 8/29/25
f 8/29/25 39/45/37 40/46/38 5/16/14
f 12/22/20 13/24/22 42/50/41 43/51/42
f 48/52/43 47/53/44 45/54/45
f 10/13/11 11/20/18 43/51/42 44/55/46
f 9/14/12 10/13/11 44/55/46 41/56/47
f 11/20/18 12/22/20 43/51/42
f 13/24/22 9/44/12 41/57/47 42/50/41
f 50/58/48 48/52/43 45/54/45
f 52/59/49 50/60/48 45/54/45
f 47/53/44 52/59/49 45/54/45
f 66/61/50 81/62/51 53/63/52 46/64/53
f 54/65/54 57/66/55 52/59/49 47/53/44
f 81/62/51 80/67/56 51/68/57 53/63/52
f 57/66/55 56/69/58 50/60/48 52/59/49
f 80/70/56 79/71/59 49/72/60 51/73/57
f 56/74/58 55/75/61 48/52/43 50/58/48
f 79/71/59 66/61/50 46/64/53 49/72/60
f 55/75/61 54/65/54 47/53/44 48/52/43
f 49/72/60 46/64/53 54/65/54 55/75/61
f 51/73/57 49/72/60 55/75/61 56/74/58
f 53/63/52 51/68/57 56/69/58 57/66/55
f 46/64/53 53/63/52 57/66/55 54/65/54
f 44/55/46 43/51/42 59/76/62 68/77/63
f 41/56/47 44/55/46 68/77/63 70/78/64
f 42/50/41 41/57/47 70/79/64 58/80/65
f 43/51/42 42/50/41 58/80/65 59/76/62
f 67/81/66 60/82/67 61/83/67 72/84/66
f 69/85/68 67/81/66 72/84/66 73/86/68
f 71/87/69 69/88/68 73/89/68 62/90/69
f 60/82/67 71/87/69 62/90/69 61/83/67
f 75/91/66 74/92/67 77/93/67 64/94/66
f 76/95/68 75/91/66 64/94/66 78/96/68
f 63/97/69 76/98/68 78/99/68 65/100/69
f 74/92/67 63/97/69 65/100/69 77/93/67
f 68/77/63 59/76/62 60/82/67 67/81/66
f 70/78/64 68/77/63 67/81/66 69/85/68
f 58/80/65 70/79/64 69/88/68 71/87/69
f 59/76/62 58/80/65 71/87/69 60/82/67
f 72/84/66 61/83/67 74/92/67 75/91/66
f 73/86/68 72/84/66 75/91/66 76/95/68
f 62/90/69 73/89/68 76/98/68 63/97/69
f 61/83/67 62/90/69 63/97/69 74/92/67
f 64/94/66 77/93/67 66/61/50 79/71/59
f 78/96/68 64/94/66 79/71/59 80/70/56
f 65/100/69 78/99/68 80/67/56 81/62/51
f 77/93/67 65/100/69 81/62/51 66/61/50
